<?xml version="1.0" encoding="utf-8"?>
<!-- Generator: Adobe Illustrator 16.0.0, SVG Export Plug-In . SVG Version: 6.00 Build 0)  -->
<!DOCTYPE svg PUBLIC "-//W3C//DTD SVG 1.1//EN" "http://www.w3.org/Graphics/SVG/1.1/DTD/svg11.dtd">
<svg version="1.1" id="Layer_1" xmlns="http://www.w3.org/2000/svg" xmlns:xlink="http://www.w3.org/1999/xlink" x="0px" y="0px"
	 width="400px" height="400px" viewBox="0 0 400 400" enable-background="new 0 0 400 400" xml:space="preserve">
<g>
	<path fill="#6CEF6C" d="M152.462,157.684c0-41.759,46.983-62.752,83.603-65.947c22.802-1.989,42.441,15.913,53.24,33.8
		c9.648,15.984,25.999,22.094,44.378,21.711c12.851-0.269,24.744-10.412,23.869-23.953c-0.553-8.548-14.56-18.287-21.714-10.647
		c-9.203,9.831,2.95,12.646,7.169,17.531c-11.979,1.256-22.506-4.97-20.036-18.315c2.743-14.827,22.602-21.886,35.2-14.456
		c18.698,11.028,27.499,40.73,16.297,59.424c6.392-2.321,12.922-8.537,18.366-12.586c-0.41,10.615-11.24,23.971-19.14,30.527
		c-10.394,8.625-23.856,13.4-35.2,20.549c11.598,0.793,3.128,6.077,40.041-3.916c0.118,10.077-35.558,18.564-42.638,19.401
		c-8.647,1.022-19.371-0.198-27.383,2.155c6.562,4.719,23.489,10.825,29.89,10.521c-10.35,0-21.932,1.617-33.779,0
		c-7.098-0.971-14.79-5.724-20.971-5.365c0.587,5.416,4.061,11.196,7.657,15.252c-8.541-3.087-15.856-6.636-24.465-9.112
		c-5.383-1.548-11.498-5.683-14.656-10.275"/>
	<path fill="#FFFFFF" d="M259.559,246.694L259,246.87c-0.349-1.85-0.876-4.417-1.621-7.513h0.055l-0.222-0.693
		c-1.535-6.274-3.923-14.527-7.448-23.188c0.223-0.321,0.44-0.642,0.653-0.963c9.804-10.948,12.997-32.576,10.137-55.649
		c-3.62-29.179-25.336-56.88-25.336-56.88l-28.953,27.534l-5.817,9.035c-6.822,7.791-12.618,15.34-14.763,20.559
		c-2.854-0.93-5.648-1.771-8.332-2.528c0.054-0.126,0.111-0.263,0.164-0.385c-3.259-1.687-6.834-1.832-10.394-2.254
		c-0.813-0.191-1.602-0.372-2.368-0.544c-0.012-0.466-0.016-0.934-0.005-1.404v1.403c-8.036-1.803-13.354-2.571-13.354-2.571
		c-7.872-0.669-7.879-0.942-21.903,1.067v-1.105c0.009,0.37,0.001,0.738-0.004,1.106c-6.001,0.859-12.823,2.288-19.934,4.634
		c0-0.002,0-0.004,0-0.006c-0.189-4.76-6.724-13.723-14.905-23.149l-3.99-6.198l-23.122-21.987
		c-3.557-3.434-5.832-5.546-5.832-5.546s-25.232,27.191-25.335,56.88c-3.029,24.418,0.707,47.245,11.902,57.479
		c-2.125,4.42-3.893,8.668-5.36,12.603h-0.001l-0.008,0.023c-1.953,5.238-3.369,9.914-4.373,13.687l0,0.003l0,0
		c-0.715,2.686-1.22,4.91-1.561,6.556l-0.598-0.178l-20.509-5.162c0,0,1.499,3.311,4.787,8.551h-4.787c0,0,3.16,1.982,8.335,5.337
		c8.234,11.744,23.007,28.743,46.262,42.113c20.175,11.6,46.403,25.926,80.936,25.926c29.215,0,46.226-9.722,65.339-18.062
		c47.771-20.849,60.727-61.766,60.727-61.766L259.559,246.694z"/>
	<path fill="#6CEF6C" d="M259.559,256.115c0,0-2.4-16.501-9.854-34.754c10.377-10.674,9.194-31.189,6.263-54.828
		c-3.619-29.179-21.768-40.13-21.768-40.13l-23.486,15.133l-23.345,23.359l0.989,1.137c-19.497-6.657-36.961-9.174-36.961-9.174
		s-19.52-1.666-41.845,5.703l0.005-0.007l-18.895-29.347l-28.954-27.534c0,0-19.557,30.005-23.176,59.184
		c-3.029,24.418-1.452,44.942,9.743,55.175c-9.484,19.729-11.902,36.081-11.902,36.081l-0.024,8.876
		c0,0,14.509,13.072,43.128,35.052c28.271,21.713,54.553,22.745,76.437,20.789c27.807-2.481,41.19-6.484,65.488-20.789
		c32.988-19.421,51.636-41.312,51.636-41.312L259.559,256.115z"/>
	<path fill="#EFF9AC" d="M151.087,286.998L36.373,252.727l-20.509-5.163c0,0,15.041,33.259,54.597,56.002
		c20.175,11.6,46.403,25.926,80.936,25.926c29.215,0,46.226-9.722,65.339-18.063c47.771-20.848,60.727-61.765,60.727-61.765
		l-17.903,3.063L151.087,286.998z"/>
	<ellipse cx="151.088" cy="287.229" rx="9.651" ry="4.368"/>
	<circle cx="204.887" cy="247.64" r="13.764"/>
	<circle fill="#FFFFFF" cx="200.437" cy="240.325" r="6.023"/>
	<circle cx="93.24" cy="247.64" r="13.764"/>
	<circle fill="#FFFFFF" cx="88.79" cy="240.325" r="6.023"/>
	<path fill="#EFF9AC" d="M48.274,220.034l33.577-43.34l-6.625-43.431l-13.519-27.588c0,0-25.232,27.191-25.335,56.88
		C36.27,192.244,35.941,206.672,48.274,220.034z"/>
	<path fill="#2F842F" d="M67.384,195.367c0,0,7.843-34.188,7.843-51.246c0-17.059-13.519-38.446-13.519-38.446
		s47.335,43.948,47.849,56.88C110.07,175.487,67.384,195.367,67.384,195.367z"/>
	<path fill="#EFF9AC" d="M249.705,221.361l-35.894-36.812l5.424-35.559l11.068-22.588c0,0,20.659,22.262,20.742,46.57
		C251.131,197.282,259.802,210.421,249.705,221.361z"/>
	<path fill="#2F842F" d="M225.656,199.838l-6.421-41.958l11.068-31.477c0,0-38.755,35.982-39.176,46.57
		C190.707,183.561,225.656,199.838,225.656,199.838z"/>
	<path fill="#EFF9AC" d="M249.705,221.361l-37.201-38.635l6.624-43.431l13.52-27.588c0,0,25.231,27.191,25.335,56.88
		C258.084,198.276,262.038,207.999,249.705,221.361z"/>
	<path fill="#2F842F" d="M226.971,201.399c0,0-7.843-40.389-7.843-51.247c0-10.857,13.52-38.446,13.52-38.446
		s-47.335,43.948-47.849,56.88C184.285,181.52,226.971,201.399,226.971,201.399z"/>
	
		<ellipse transform="matrix(0.9412 -0.3379 0.3379 0.9412 -67.4247 44.7415)" fill="#2F842F" cx="94.812" cy="216.056" rx="10.743" ry="6.883"/>
	
		<ellipse transform="matrix(-0.9412 -0.3379 0.3379 -0.9412 312.0597 486.4265)" fill="#2F842F" cx="198.362" cy="216.056" rx="10.743" ry="6.884"/>
	<path fill="#EFF9AC" d="M67.384,195.367"/>
	<polygon fill-rule="evenodd" clip-rule="evenodd" fill="#2F842F" points="42.913,232.636 59.1,246.348 38.532,246.348 	"/>
	<polygon fill-rule="evenodd" clip-rule="evenodd" fill="#2F842F" points="253.051,231.677 236.865,245.389 257.434,245.389 	"/>
	<circle fill="#FFFFFF" cx="98.096" cy="252.495" r="4.856"/>
	<circle fill="#FFFFFF" cx="209.508" cy="252.495" r="4.856"/>
	<path fill="#2F842F" d="M129.494,156.82c0.197,8.15-3.521,15.587,1.487,23.202c-7.38-1.46-11.577-12.804-14.254-18.999
		c3.984-2.062,8.443-1.812,12.767-2.595"/>
	<path fill="#2F842F" d="M164.75,158.027c-0.198,8.15,3.52,15.587-1.487,23.202c7.38-1.461,11.576-12.804,14.253-18.999
		c-3.984-2.062-8.443-1.812-12.767-2.595"/>
	<path fill="#2F842F" d="M324.282,154.06l22.97-5.586l8.847-6.797l5.027-12.204c0,0,0-12.667-3.317-16.287
		c-3.318-3.619-16.237-7.511-16.237-7.511h-8.796c0,0,6.774-3.798,16.085-6.033s17.393,6.359,19.806,12.065
		c2.413,5.706,4.323,8.673,5.127,14.696c0.804,6.024-0.639,19.164-2.883,25.141c-2.244,5.977-6.165,10.934-6.165,10.934
		s1.163,2.871,7.797,0s12.108-7.973,12.108-7.973s-9.25,14.2-18.096,18.713c-8.848,4.514-24.128,14.161-24.128,14.161l-15.08,3.017
		l14.275-18.5l-19.428-2.269l17.819-10.528L324.282,154.06z"/>
</g>
</svg>
