<?xml version="1.0" encoding="utf-8"?>
<!-- Generator: Adobe Illustrator 16.0.0, SVG Export Plug-In . SVG Version: 6.00 Build 0)  -->
<!DOCTYPE svg PUBLIC "-//W3C//DTD SVG 1.1//EN" "http://www.w3.org/Graphics/SVG/1.1/DTD/svg11.dtd">
<svg version="1.1" id="Layer_1" xmlns="http://www.w3.org/2000/svg" xmlns:xlink="http://www.w3.org/1999/xlink" x="0px" y="0px"
	 width="596.385px" height="256.626px" viewBox="6.773 82.186 596.385 256.626"
	 enable-background="new 6.773 82.186 596.385 256.626" xml:space="preserve">
<g>
	<path fill="#6CEF6C" d="M338.494,195.322c11.344-7.149,24.806-11.924,35.2-20.549c7.899-6.556,18.729-19.912,19.14-30.527
		c-5.444,4.049-11.974,10.265-18.366,12.586c11.202-18.694,2.401-48.396-16.297-59.424c-12.598-7.43-32.457-0.371-35.2,14.456
		c-2.47,13.345,8.058,19.571,20.036,18.315c-4.219-4.885-16.372-7.7-7.169-17.531c7.154-7.64,21.161,2.099,21.714,10.647
		c0.875,13.541-11.018,23.684-23.869,23.953c-18.379,0.383-34.729-5.727-44.378-21.711c-10.799-17.887-30.438-35.789-53.24-33.8
		c-34.629,3.021-78.518,21.962-83.188,59.326c2.111,0.348,6.35,1.099,11.873,2.337c0,0-0.007-0.465,0.005,0.001
		c0.766,0.172,18.076,4.781,20.93,5.711c2.145-5.219,7.941-12.768,14.763-20.559l5.817-9.035l28.952-27.534
		c0,0,21.716,27.701,25.337,56.88c2.771,22.367-0.145,43.375-9.257,54.614l0.892,0.504c3.158,4.593,9.273,8.728,14.656,10.275
		c8.609,2.477,15.924,6.025,24.465,9.112c-3.596-4.056-7.069-9.836-7.656-15.252c6.181-0.359,13.873,4.394,20.971,5.364
		c11.573,1.58,22.891,0.077,33.058,0.007c-6.868-0.135-22.839-5.975-29.169-10.527c8.013-2.353,18.736-1.133,27.383-2.155
		c7.08-0.836,42.757-9.324,42.639-19.4C341.622,201.398,350.092,196.115,338.494,195.322z"/>
	<path fill="#6CEF6C" d="M259.559,256.115c0,0-2.399-16.502-9.854-34.754c-6.58-20.611-62.956-55.871-62.956-55.871
		c-18.838-6.253-35.352-8.633-35.352-8.633s-19.52-1.666-41.845,5.703l0.005-0.007c0,0-60.741,20.28-61.282,57.478
		c-9.484,19.729-11.902,36.082-11.902,36.082l-0.024,8.875c0,0,14.509,13.072,43.128,35.053
		c28.271,21.713,54.553,22.745,76.437,20.789c27.807-2.48,41.19-6.484,65.488-20.789c32.988-19.421,51.636-41.313,51.636-41.313
		L259.559,256.115z"/>
	<path fill="#EFF9AC" d="M151.087,286.998L36.373,252.727l-20.509-5.162c0,0,15.041,33.259,54.597,56.002
		c20.175,11.6,46.403,25.926,80.936,25.926c29.215,0,46.226-9.723,65.339-18.063c47.771-20.849,60.727-61.766,60.727-61.766
		l-17.902,3.063L151.087,286.998z"/>
	<ellipse cx="151.088" cy="287.229" rx="9.651" ry="4.368"/>
	<circle cx="204.887" cy="247.64" r="13.764"/>
	<circle fill="#FFFFFF" cx="200.437" cy="240.325" r="6.023"/>
	<circle cx="93.24" cy="247.64" r="13.764"/>
	<circle fill="#FFFFFF" cx="88.79" cy="240.325" r="6.023"/>
	<path fill="#EFF9AC" d="M48.274,220.034l33.577-43.34l-6.625-43.431l-13.519-27.588c0,0-25.232,27.191-25.335,56.88
		C36.27,192.244,35.941,206.672,48.274,220.034z"/>
	<path fill="#2F842F" d="M67.384,195.367c0,0,7.843-34.188,7.843-51.246c0-17.059-13.519-38.446-13.519-38.446
		s47.335,43.948,47.849,56.88C110.07,175.487,67.384,195.367,67.384,195.367z"/>
	<path fill="#EFF9AC" d="M249.705,221.361l-37.201-38.635l6.624-43.431l13.521-27.588c0,0,25.23,27.191,25.334,56.88
		C258.084,198.276,262.038,207.999,249.705,221.361z"/>
	<path fill="#2F842F" d="M226.971,201.398c0,0-7.843-40.389-7.843-51.247c0-10.857,13.521-38.446,13.521-38.446
		s-47.335,43.948-47.85,56.88C184.285,181.52,226.971,201.398,226.971,201.398z"/>
	
		<ellipse transform="matrix(-0.3379 -0.9412 0.9412 -0.3379 -76.4914 378.3036)" fill="#2F842F" cx="94.818" cy="216.057" rx="6.883" ry="10.744"/>
	
		<ellipse transform="matrix(-0.3379 0.9412 -0.9412 -0.3379 468.7382 102.3573)" fill="#2F842F" cx="198.367" cy="216.048" rx="6.884" ry="10.743"/>
	<polygon fill="#2F842F" points="42.913,232.637 59.1,246.348 38.532,246.348 	"/>
	<path fill="#2F842F" d="M253.36,231.279l-16.495,14.109h20.568C256.368,240.624,253.644,232.142,253.36,231.279z"/>
	<circle fill="#FFFFFF" cx="98.096" cy="252.495" r="4.856"/>
	<circle fill="#FFFFFF" cx="209.508" cy="252.495" r="4.856"/>
	<path fill="#2F842F" d="M129.498,157.923c0.197,8.15-3.524,14.484,1.483,22.099c-7.38-1.46-11.814-13.022-14.254-19.562
		C120.375,159.586,125.083,158.458,129.498,157.923z"/>
	<path fill="#2F842F" d="M164.739,159.426c-0.198,8.15,3.531,14.188-1.476,21.803c7.38-1.461,11.411-12.421,14.088-18.616
		C172.877,160.938,169.063,160.209,164.739,159.426z"/>
	<path fill="#2F842F" d="M324.282,154.06l22.97-5.586l8.847-6.797l5.027-12.204c0,0,0-12.667-3.317-16.287
		c-3.317-3.619-16.236-7.511-16.236-7.511h-8.796c0,0,6.773-3.798,16.085-6.033c9.311-2.235,17.393,6.359,19.806,12.065
		s4.323,8.673,5.127,14.696c0.804,6.024-0.639,19.164-2.883,25.141s-6.165,10.934-6.165,10.934s1.163,2.871,7.797,0
		s12.108-7.973,12.108-7.973s-9.25,14.2-18.097,18.713c-8.848,4.514-24.128,14.161-24.128,14.161l-15.08,3.017l14.275-18.5
		l-19.428-2.269l17.818-10.528L324.282,154.06z"/>
</g>
<g>
	<path fill="#4CD64C" d="M333.479,303.059l-1.26-8.666h-0.402c-2.754,3.526-5.584,6.021-8.488,7.481
		c-2.905,1.461-6.34,2.19-10.303,2.19c-5.375,0-9.557-1.377-12.545-4.131c-2.99-2.754-4.483-6.565-4.483-11.437
		c0-5.341,2.226-9.488,6.675-12.444c4.45-2.955,10.891-4.517,19.321-4.686l10.429-0.303v-3.627c0-5.207-1.059-9.136-3.174-11.789
		c-2.116-2.653-5.525-3.98-10.229-3.98c-5.071,0-10.328,1.411-15.77,4.232l-1.863-4.334c6.012-2.82,11.956-4.231,17.834-4.231
		c6.012,0,10.506,1.562,13.479,4.687c2.972,3.123,4.458,7.994,4.458,14.609v36.426h-3.679V303.059z M313.326,299.531
		c5.845,0,10.453-1.672,13.83-5.014c3.375-3.342,5.062-7.984,5.062-13.931v-5.392l-9.571,0.404
		c-7.691,0.369-13.174,1.569-16.449,3.602c-3.274,2.033-4.912,5.197-4.912,9.497c0,3.426,1.05,6.088,3.148,7.985
		C306.533,298.582,309.498,299.531,313.326,299.531z"/>
	<path fill="#4CD64C" d="M423.307,303.059v-35.922c0-5.341-1.041-9.236-3.123-11.688c-2.082-2.452-5.272-3.678-9.572-3.678
		c-5.609,0-9.758,1.545-12.443,4.635c-2.688,3.091-4.029,7.943-4.029,14.56v32.093h-5.09v-37.433c0-9.235-4.23-13.854-12.695-13.854
		c-5.744,0-9.924,1.672-12.545,5.014c-2.619,3.342-3.93,8.689-3.93,16.046v30.229h-4.986v-54.765h4.131l1.058,7.507h0.303
		c1.511-2.721,3.66-4.828,6.448-6.322s5.861-2.242,9.22-2.242c8.632,0,14.175,3.24,16.626,9.723h0.201
		c1.78-3.124,4.174-5.523,7.18-7.204c3.006-1.679,6.424-2.519,10.252-2.519c5.979,0,10.463,1.595,13.451,4.785
		c2.989,3.191,4.484,8.263,4.484,15.215v35.82H423.307L423.307,303.059z"/>
	<path fill="#4CD64C" d="M487.492,303.059h-40.254v-73.656h40.254v4.736h-35.115v27.859h33.15v4.736h-33.15v31.589h35.115V303.059
		L487.492,303.059z"/>
	<path fill="#4CD64C" d="M524.773,304.064c-7.826,0-13.955-2.469-18.39-7.405c-4.434-4.937-6.649-11.822-6.649-20.656
		c0-9.067,2.301-16.129,6.902-21.185c4.6-5.055,10.897-7.582,18.893-7.582c4.734,0,9.27,0.822,13.603,2.468l-1.36,4.435
		c-4.734-1.578-8.851-2.369-12.342-2.369c-6.719,0-11.808,2.074-15.267,6.223c-3.46,4.148-5.188,10.119-5.188,17.91
		c0,7.39,1.729,13.175,5.188,17.355c3.459,4.182,8.296,6.271,14.51,6.271c4.972,0,9.589-0.889,13.854-2.67v4.636
		C535.034,303.209,530.449,304.064,524.773,304.064z"/>
	<path fill="#4CD64C" d="M590.797,254.818c-4.282-5.055-10.186-7.582-17.709-7.582c-7.558,0-13.502,2.492-17.835,7.48
		c-4.332,4.987-6.499,11.949-6.499,20.883c0,5.676,0.975,10.682,2.922,15.014c1.948,4.332,4.753,7.658,8.414,9.976
		c3.66,2.318,7.893,3.478,12.695,3.478c7.624,0,13.604-2.512,17.936-7.532c4.333-5.021,6.499-11.998,6.499-20.933
		C597.22,266.801,595.079,259.874,590.797,254.818z"/>
</g>
</svg>
